<svg width="20" height="20" viewBox="0 0 20 20" fill="none" xmlns="http://www.w3.org/2000/svg">
<g clip-path="url(#clip0_47_267)">
<path d="M15.9752 10.8267H12.5355C12.4796 10.8209 12.4235 10.8358 12.3778 10.8685C12.3321 10.9012 12.2999 10.9496 12.2873 11.0045C12.1004 11.4541 11.7815 11.8361 11.3729 12.0996C10.9644 12.3632 10.4856 12.4958 10 12.48C9.52052 12.5 9.04637 12.3729 8.64084 12.1156C8.23531 11.8583 7.91772 11.4831 7.73051 11.04C7.70682 10.9714 7.66056 10.9129 7.59935 10.8742C7.53813 10.8354 7.46558 10.8187 7.39362 10.8267H0.585118C0.505518 10.8387 0.424208 10.8318 0.347741 10.8066C0.271274 10.7814 0.201781 10.7385 0.144859 10.6814C0.0879369 10.6244 0.0451882 10.5547 0.0200289 10.478C-0.0051304 10.4014 -0.0119948 10.3198 8.50717e-06 10.24V9.70667C-0.0056159 9.63131 0.00536693 9.55563 0.0321494 9.48499C0.0589318 9.41435 0.100871 9.35051 0.155004 9.29793C0.209138 9.24534 0.274123 9.20534 0.345387 9.18074C0.416652 9.15614 0.492455 9.14754 0.567397 9.15556H7.48228C7.60639 9.15556 7.64185 9.15559 7.69504 9.01337C7.88045 8.56004 8.19792 8.17331 8.60597 7.90372C9.01401 7.63413 9.49369 7.49422 9.98229 7.50224C10.4678 7.48642 10.9467 7.61911 11.3552 7.88267C11.7638 8.14623 12.0826 8.52816 12.2695 8.97778C12.2927 9.03691 12.335 9.08656 12.3897 9.11878C12.4443 9.151 12.5081 9.16395 12.5709 9.15556H19.5745C19.6844 9.17539 19.7844 9.23179 19.8584 9.31567C19.9324 9.39954 19.9761 9.506 19.9823 9.6178C20 9.85451 20 10.0922 19.9823 10.3289C19.9831 10.3984 19.9687 10.4672 19.9404 10.5306C19.912 10.594 19.8703 10.6505 19.818 10.6961C19.7657 10.7418 19.7042 10.7755 19.6377 10.795C19.5711 10.8145 19.5012 10.8192 19.4326 10.8089H15.8865L15.9752 10.8267ZM10.8156 9.99112C10.833 9.8724 10.8247 9.75131 10.7913 9.63609C10.7578 9.52087 10.7 9.41424 10.6218 9.32343C10.5436 9.23261 10.4467 9.15977 10.3379 9.10983C10.2291 9.05989 10.1108 9.03404 9.99116 9.03404C9.87148 9.03404 9.7532 9.05989 9.64437 9.10983C9.53555 9.15977 9.43872 9.23261 9.36049 9.32343C9.28226 9.41424 9.22446 9.52087 9.19102 9.63609C9.15758 9.75131 9.14926 9.8724 9.16667 9.99112C9.16665 10.1 9.18832 10.2078 9.23041 10.3082C9.2725 10.4086 9.33416 10.4996 9.41179 10.5758C9.48941 10.6519 9.58143 10.7118 9.68244 10.7519C9.78345 10.7919 9.89142 10.8113 10 10.8089C10.1078 10.8113 10.2149 10.7918 10.315 10.7516C10.415 10.7114 10.5059 10.6512 10.5821 10.5748C10.6583 10.4984 10.7183 10.4072 10.7585 10.3069C10.7986 10.2066 10.818 10.0992 10.8156 9.99112Z" fill="#193C46"/>
<path d="M6.98582 1.72439H13.3333C13.3962 1.73278 13.46 1.71983 13.5146 1.68761C13.5692 1.65539 13.6115 1.60574 13.6348 1.5466C13.8328 1.10705 14.153 0.734144 14.5572 0.472548C14.9613 0.210951 15.4321 0.0717773 15.9131 0.0717773C16.3942 0.0717773 16.865 0.210951 17.2691 0.472548C17.6732 0.734144 17.9935 1.10705 18.1915 1.5466C18.2118 1.60776 18.2536 1.65948 18.309 1.69217C18.3644 1.72485 18.4297 1.73629 18.4929 1.72439H19.3972C19.4737 1.71594 19.5512 1.72483 19.6239 1.75043C19.6966 1.77603 19.7626 1.81768 19.817 1.87229C19.8715 1.9269 19.913 1.99311 19.9386 2.06597C19.9641 2.13884 19.973 2.21653 19.9646 2.29329C19.9823 2.48845 19.9823 2.68479 19.9646 2.87994C19.9672 2.94989 19.9551 3.01962 19.9291 3.08458C19.9031 3.14954 19.8637 3.20829 19.8135 3.25694C19.7633 3.3056 19.7034 3.34309 19.6378 3.36697C19.5722 3.39085 19.5023 3.40056 19.4326 3.39551H18.3511C18.2092 3.39551 18.1383 3.39552 18.0851 3.5733C17.9277 3.93467 17.687 4.25336 17.3827 4.50315C17.0784 4.75294 16.7192 4.92665 16.3348 5.00998C15.9504 5.09332 15.5518 5.0839 15.1718 4.98248C14.7917 4.88105 14.4411 4.6905 14.1489 4.4266C13.897 4.16062 13.6823 3.86159 13.5106 3.53771C13.5106 3.44882 13.4043 3.39551 13.2802 3.39551H0.549641C0.473077 3.40396 0.395596 3.39507 0.322924 3.36947C0.250251 3.34387 0.184247 3.30222 0.129781 3.24761C0.0753144 3.193 0.0337839 3.12679 0.00825171 3.05393C-0.0172805 2.98106 -0.0261518 2.90337 -0.0177207 2.82661V2.2755C-0.0262105 2.20106 -0.0178297 2.1257 0.00679076 2.05496C0.0314112 1.98422 0.0716418 1.91995 0.124478 1.86697C0.177315 1.81399 0.24139 1.77366 0.31194 1.74897C0.382489 1.72428 0.457682 1.71588 0.53192 1.72439H6.98582ZM15.8511 3.39551C16.0721 3.39551 16.284 3.30747 16.4403 3.15077C16.5966 2.99407 16.6844 2.78155 16.6844 2.55995C16.6844 2.33835 16.5966 2.12583 16.4403 1.96913C16.284 1.81243 16.0721 1.72439 15.8511 1.72439C15.6301 1.72439 15.4181 1.81243 15.2618 1.96913C15.1055 2.12583 15.0177 2.33835 15.0177 2.55995C15.0177 2.78155 15.1055 2.99407 15.2618 3.15077C15.4181 3.30747 15.6301 3.39551 15.8511 3.39551Z" fill="#193C46"/>
<path d="M13.0674 18.3289H6.73761C6.67428 18.3184 6.60935 18.333 6.55645 18.3694C6.50356 18.4059 6.46681 18.4615 6.45392 18.5245C6.25823 18.9692 5.93785 19.3472 5.53176 19.6126C5.12568 19.878 4.65142 20.0193 4.16669 20.0193C3.68197 20.0193 3.20769 19.878 2.8016 19.6126C2.39551 19.3472 2.07513 18.9692 1.87944 18.5245C1.8631 18.4682 1.82746 18.4195 1.7788 18.387C1.73015 18.3545 1.67161 18.3402 1.6135 18.3467C1.27662 18.3467 0.922005 18.3467 0.585126 18.3467C0.248246 18.3467 1.60586e-05 18.1689 1.60586e-05 17.7778V17.2445C-0.00903988 17.1684 -0.000440344 17.0912 0.0251498 17.0189C0.0507399 16.9467 0.0926285 16.8814 0.147545 16.828C0.202461 16.7747 0.268917 16.7348 0.341743 16.7114C0.414568 16.6881 0.491809 16.6819 0.567405 16.6934C0.922015 16.6934 1.29436 16.6934 1.64897 16.6934C1.69501 16.696 1.74064 16.6835 1.77902 16.6579C1.81739 16.6322 1.84642 16.5948 1.86172 16.5512C2.05238 16.096 2.37283 15.7074 2.78288 15.4342C3.19293 15.1609 3.67434 15.0151 4.16669 15.0151C4.65905 15.0151 5.14046 15.1609 5.55051 15.4342C5.96056 15.7074 6.28101 16.096 6.47166 16.5512C6.47166 16.6578 6.47166 16.6934 6.68442 16.6934H19.3972C19.4728 16.6819 19.55 16.6881 19.6228 16.7114C19.6956 16.7348 19.7621 16.7747 19.817 16.828C19.872 16.8814 19.9138 16.9467 19.9394 17.0189C19.965 17.0912 19.9736 17.1684 19.9646 17.2445C19.9823 17.4219 19.9823 17.6005 19.9646 17.7778C19.976 17.8536 19.9699 17.931 19.9466 18.0041C19.9233 18.0771 19.8835 18.1437 19.8303 18.1988C19.7771 18.2538 19.7119 18.2958 19.6399 18.3215C19.5678 18.3472 19.4908 18.3558 19.4149 18.3467H13.0497L13.0674 18.3289ZM4.20214 18.3289C4.36695 18.3289 4.52808 18.28 4.66512 18.1882C4.80216 18.0963 4.90898 17.9658 4.97205 17.8132C5.03513 17.6605 5.05164 17.4925 5.01948 17.3304C4.98733 17.1683 4.90796 17.0194 4.79141 16.9026C4.67487 16.7857 4.52638 16.7061 4.36473 16.6739C4.20308 16.6416 4.03551 16.6582 3.88324 16.7215C3.73097 16.7847 3.60084 16.8918 3.50927 17.0292C3.4177 17.1666 3.36883 17.3281 3.36883 17.4934C3.36863 17.709 3.45153 17.9163 3.60022 18.072C3.74892 18.2277 3.95188 18.3198 4.16669 18.3289H4.20214Z" fill="#193C46"/>
</g>
<defs>
<clipPath id="clip0_47_267">
<rect width="20" height="20" fill="white"/>
</clipPath>
</defs>
</svg>
