<svg width="11" height="9" viewBox="0 0 11 9" fill="none" xmlns="http://www.w3.org/2000/svg">
<g clip-path="url(#clip0_123_270)">
<path d="M2.91201 9.0312C2.82816 8.93761 2.74431 8.85963 2.65283 8.77384L0.198223 6.34836C0.13641 6.29803 0.0854635 6.23516 0.0485913 6.16369C0.0117192 6.09221 -0.0102817 6.01369 -0.0160116 5.93308C-0.0217416 5.85248 -0.0110748 5.77154 0.0153011 5.69536C0.0416771 5.61918 0.0831797 5.54941 0.137226 5.49046C0.192834 5.42725 0.26021 5.37601 0.335408 5.33976C0.410606 5.30351 0.492133 5.28299 0.575186 5.27935C0.658238 5.27572 0.741158 5.28907 0.819104 5.31862C0.897051 5.34818 0.96845 5.39335 1.02913 5.45148L2.1116 6.51213L2.18021 6.57453C2.18021 6.57453 2.18021 6.51993 2.18021 6.49654V2.2851C2.18021 1.78597 2.18021 1.28684 2.18021 0.77991C2.22639 0.617913 2.32267 0.475596 2.45463 0.374349C2.58658 0.273101 2.74707 0.218384 2.91201 0.218384C3.07695 0.218384 3.23745 0.273101 3.3694 0.374349C3.50135 0.475596 3.59763 0.617913 3.64381 0.77991V6.58231L3.70481 6.53552L4.77966 5.47488C4.88002 5.37716 5.00893 5.31584 5.14664 5.30035C5.28435 5.28485 5.42324 5.31602 5.54196 5.38907C5.61929 5.43519 5.68496 5.49927 5.73367 5.5761C5.78239 5.65293 5.81278 5.74038 5.82242 5.83143C5.83207 5.92248 5.82069 6.01456 5.78918 6.10028C5.75768 6.186 5.70693 6.26297 5.64104 6.32496L4.62719 7.32323L2.93488 8.99221L2.91201 9.0312Z" fill="white"/>
<path d="M8.07274 0L8.58349 0.506928C9.34579 1.22443 10.0471 1.95753 10.7865 2.67504C10.8467 2.72737 10.8961 2.79144 10.9318 2.86351C10.9675 2.93558 10.9888 3.01419 10.9945 3.09478C11.0002 3.17537 10.9901 3.25632 10.9649 3.33288C10.9396 3.40945 10.8997 3.48009 10.8475 3.54071C10.7887 3.60155 10.7186 3.64984 10.6414 3.6828C10.5642 3.71576 10.4814 3.73273 10.3978 3.73273C10.3141 3.73273 10.2313 3.71576 10.1541 3.6828C10.0769 3.64984 10.0069 3.60155 9.94802 3.54071L8.93414 2.54244L8.80456 2.41766C8.80456 2.41766 8.80456 2.47225 8.80456 2.48785C8.80456 4.38039 8.80456 6.27555 8.80456 8.1733C8.80456 8.38014 8.72424 8.57852 8.58128 8.72478C8.43832 8.87104 8.24444 8.95319 8.04226 8.95319C7.84652 8.95344 7.65819 8.87665 7.51627 8.73872C7.37436 8.6008 7.28975 8.41231 7.27996 8.2123V2.40207L7.20373 2.47226L6.19749 3.57191C6.11581 3.66173 6.00978 3.72456 5.89299 3.75235C5.77619 3.78013 5.65395 3.77163 5.54192 3.7279C5.44483 3.69641 5.35741 3.6396 5.28828 3.56308C5.21914 3.48657 5.17065 3.39297 5.14758 3.29147C5.12451 3.18998 5.12765 3.08408 5.1567 2.98421C5.18574 2.88433 5.23967 2.79392 5.31321 2.72183L6.07551 1.94193L8.01177 0.0389853C8.01177 0.0389853 8.04987 0.0155979 8.07274 0Z" fill="white"/>
</g>
<defs>
<clipPath id="clip0_123_270">
<rect width="11" height="9" fill="white"/>
</clipPath>
</defs>
</svg>
