<svg width="171" height="81" viewBox="0 0 171 81" fill="none" xmlns="http://www.w3.org/2000/svg">
<g clip-path="url(#clip0_646_253)">
<path d="M13.5 31.6C16.1142 24.5367 19.1805 17.6491 22.6801 10.98C22.9301 10.49 23.2301 9.92997 23.5701 9.30997L24.4801 7.69998C24.7401 7.23998 24.88 6.99997 24.91 6.96997L25.5401 6.84998C25.9301 6.75998 26.4301 6.66998 27.0201 6.56998C28.4801 6.24998 30.02 5.92998 31.64 5.63998C33.26 5.34998 34.5501 5.12998 35.4901 5.00998C35.9101 4.92998 36.2701 4.86999 36.5601 4.79999C36.726 4.78277 36.8881 4.73887 37.04 4.66998C37.3331 4.56578 37.6341 4.48549 37.9401 4.42996C38.4301 4.31996 38.9901 4.21996 39.6201 4.11996C40.2501 4.01996 40.7901 3.95996 41.2401 3.92996L44.0001 3.66998C44.6301 3.61998 45.3101 3.58997 46.0001 3.55997C46.6426 3.51595 47.2875 3.51595 47.9301 3.55997C48.3257 3.59266 48.7137 3.68714 49.08 3.83997C49.2224 3.874 49.3555 3.93886 49.4701 4.02997C49.5621 4.11603 49.6427 4.21349 49.7101 4.31998C49.9801 4.73998 50.17 4.78997 50.26 4.46997C50.2823 4.14405 50.1864 3.82103 49.9901 3.55997C49.7587 3.17679 49.4607 2.83811 49.11 2.55997C48.5691 2.19142 47.9491 1.95507 47.3 1.86996C46.3382 1.75114 45.3674 1.72102 44.4001 1.77997L42.6 1.92996L40.73 2.07999L39.54 2.18997L37.7801 2.51999L35.25 2.99997L33.25 3.40997L31.5 3.72998L29.39 4.11996L27.5901 4.42996C27.0801 4.51996 26.7801 4.56998 26.6801 4.59998C26.6038 4.6118 26.5263 4.6118 26.4501 4.59998C26.4501 4.59998 26.4501 4.53997 26.4501 4.46997C26.5166 4.32762 26.6042 4.19615 26.7101 4.07999C26.885 3.86619 27.072 3.66251 27.2701 3.46997C27.6441 3.15094 27.9299 2.74117 28.1001 2.27997C28.1001 2.02997 27.9701 1.75996 27.6001 1.45996C27.1233 1.07336 26.6072 0.738168 26.0601 0.459961C25.6434 0.214206 25.1862 0.0448781 24.7101 -0.0400391C23.9701 0.109961 22.6401 1.95999 20.7101 5.48999C20.7101 5.53999 20.5 5.59997 20.08 5.68997C19.66 5.77997 18.9501 5.90999 17.9601 6.07999C14.1467 6.74665 11.2567 7.20332 9.29005 7.44998C7.42615 7.69447 5.5497 7.83137 3.67004 7.85999H2.15005C1.80005 7.85999 1.54006 7.85999 1.37006 7.85999C1.22882 7.85709 1.08952 7.82651 0.960052 7.76999C0.706503 7.69089 0.444858 7.64054 0.180054 7.61996C0.120471 7.6113 0.0598581 7.62637 0.0112457 7.6619C-0.0373666 7.69742 -0.0701115 7.75057 -0.0799561 7.80997C-0.10019 7.85032 -0.110718 7.89483 -0.110718 7.93997C-0.110718 7.98511 -0.10019 8.02963 -0.0799561 8.06998C-0.0083361 8.23403 0.0717777 8.39426 0.160049 8.54999C0.398016 9.00984 0.728871 9.41526 1.13167 9.7406C1.53447 10.0659 2.00042 10.3041 2.50005 10.44C2.98781 10.5005 3.47857 10.5339 3.97005 10.54C4.67143 10.5492 5.37273 10.5158 6.07005 10.44C7.498 10.3395 8.91985 10.1659 10.33 9.91998C11.77 9.67998 13.9 9.25997 16.72 8.65997C17.48 8.48997 18.1301 8.34997 18.6501 8.24997L19.4601 8.10999C19.4601 8.10999 19.46 8.18998 19.39 8.34998C19.32 8.50998 19.2201 8.70996 19.0901 8.95996C16.4701 14.3466 13.7134 20.99 10.8201 28.89C8.25207 35.6536 6.24529 42.6171 4.82005 49.71C4.70005 50.45 4.61005 51.18 4.55005 51.88C4.49005 52.58 4.45006 53.38 4.45006 54.28C4.45006 55.18 4.45006 55.77 4.45006 56.28C4.45006 56.79 4.45006 57.14 4.51006 57.45C4.53671 57.8062 4.58681 58.1603 4.66005 58.51C4.73005 58.86 4.79005 59.12 4.82005 59.31C4.84716 59.4545 4.89079 59.5954 4.95006 59.73C5.01002 59.8391 5.08396 59.94 5.17004 60.03C5.25679 60.1698 5.37279 60.2892 5.51006 60.38C5.67376 60.4902 5.84792 60.584 6.03004 60.66C6.70004 60.93 7.14005 60.97 7.36005 60.77C7.58005 60.57 7.36005 60.46 6.96005 60.29L6.59006 60.14L6.44005 59.14C6.26511 57.1857 6.41378 55.2159 6.88005 53.31C8.54392 45.9188 10.7567 38.662 13.5 31.6V31.6Z" fill="white"/>
<path d="M41.8 46.65C42.1362 46.8573 42.4952 47.0251 42.87 47.15C43.1959 47.237 43.536 47.2574 43.87 47.21C44.0885 47.19 44.3056 47.1566 44.52 47.11C44.7247 47.061 44.9205 46.98 45.1 46.87C46.0362 46.2899 46.8904 45.5869 47.64 44.78C47.2121 45.7769 46.8773 46.8113 46.64 47.87C46.5466 48.1968 46.5466 48.5432 46.64 48.87C46.7642 49.1428 46.9704 49.37 47.23 49.52C47.4151 49.7046 47.6595 49.8179 47.92 49.84C48.1 49.84 48.35 49.58 48.64 49.11C48.93 48.64 49.41 47.85 50.05 46.74C52.7073 41.9366 55.8003 37.3875 59.29 33.15C59.52 32.93 59.79 32.64 60.13 32.28C60.47 31.92 60.8 31.57 61.13 31.22L62.02 30.35C62.1433 30.2185 62.2808 30.1011 62.43 30C62.43 30 62.43 30.15 62.34 30.39C62.25 30.63 62.14 30.91 62.02 31.26C61.82 31.85 61.63 32.44 61.44 33.02C61.25 33.6 61.13 34.02 61.06 34.3C60.99 34.58 61.06 34.54 61.06 34.49C61.06 34.44 61.14 34.63 61.14 34.97C61.1044 35.2843 61.142 35.6026 61.25 35.9C61.3686 36.1809 61.5459 36.4332 61.77 36.64C62.56 37.41 63.17 37.64 63.59 37.38C63.73 37.26 63.79 37.15 63.75 37.05C63.6467 36.8722 63.5028 36.7214 63.33 36.61L63.22 36.48C63.206 36.4468 63.1987 36.411 63.1987 36.375C63.1987 36.3389 63.206 36.3032 63.22 36.27C63.2407 36.115 63.2708 35.9614 63.31 35.81C63.36 35.6 63.42 35.31 63.49 34.93C63.56 34.55 63.59 34.4 63.64 34.15C63.69 33.9 63.73 33.72 63.75 33.6L63.9 33C63.98 32.73 64.06 32.45 64.16 32.15C64.4735 31.3986 64.6398 30.594 64.65 29.78C64.5584 29.1575 64.224 28.5966 63.72 28.22C63.5196 27.978 63.271 27.7805 62.99 27.64C62.7793 27.5676 62.5506 27.5676 62.34 27.64C61.1133 28.0067 59.1133 30.1733 56.34 34.14C56.12 34.46 55.86 34.82 55.57 35.21C55.6678 34.9841 55.7779 34.7638 55.9 34.55C56.52 33.41 56.9 32.62 57.18 32.17C57.3188 31.9344 57.436 31.6867 57.53 31.43C57.4665 31.2186 57.3685 31.0193 57.24 30.84C57.0509 30.5459 56.8332 30.2712 56.59 30.02C56.3631 29.7799 56.1079 29.5684 55.83 29.39C55.7348 29.2988 55.6157 29.2363 55.4866 29.2097C55.3574 29.1832 55.2234 29.1937 55.1 29.24C54.7707 29.4571 54.4967 29.7481 54.3 30.09L53.75 31.09C53.52 31.5 53.23 32.09 52.86 32.91C52.49 33.73 51.99 34.82 51.37 36.23C50.44 38.31 49.68 40.06 49.06 41.5C48.58 42 48.06 42.5 47.57 43.03C45.8233 44.7633 44.3433 45.7266 43.13 45.92H42.65L42.54 45.66C42.4389 45.2137 42.3886 44.7575 42.39 44.3C42.3599 43.7371 42.3599 43.1729 42.39 42.61C42.39 42.34 42.48 41.89 42.58 41.26C42.68 40.63 42.77 39.95 42.87 39.26C43.09 37.92 43.25 36.92 43.34 36.26C43.43 35.6 43.47 35.1 43.48 34.76C43.4965 34.3626 43.4798 33.9646 43.43 33.57C43.43 33.15 43.38 32.84 43.35 32.64C43.3412 32.4898 43.3109 32.3416 43.26 32.2C43.2096 32.0778 43.1422 31.9634 43.06 31.86C42.7824 31.495 42.4442 31.1803 42.06 30.93C41.4586 30.44 40.723 30.1437 39.95 30.08C39.03 30.08 37.55 31.5 35.49 34.5C34.1566 36.38 32.8766 38.3033 31.65 40.27C30.4233 42.2367 28.9333 44.8033 27.18 47.97C26.64 48.97 26.11 49.89 25.6 50.77C25.09 51.65 24.74 52.26 24.54 52.61L23.8 53.81C23.56 54.22 23.34 54.56 23.15 54.81C23.0546 54.9653 22.9511 55.1155 22.84 55.26C22.8702 55.0836 22.9137 54.9098 22.97 54.74C23.03 54.54 23.12 54.27 23.25 53.91C23.38 53.55 23.53 53.08 23.73 52.51C23.93 51.94 24.16 51.27 24.43 50.51C25.4033 47.7433 26.2133 45.4933 26.86 43.76C27.5066 42.0266 28.2366 40.2566 29.05 38.45C29.8633 36.6433 30.9733 34.2433 32.38 31.25C32.45 31.08 32.52 30.9 32.6 30.73C33.51 28.73 34.22 27.23 34.71 26.24C35.2 25.25 35.71 24.4 36.11 23.7C36.51 23 37.11 22.07 37.91 20.93C37.9777 20.8291 38.0511 20.7323 38.13 20.64C44.07 11.8 47.1633 6.71331 47.41 5.37997C47.46 5.03997 47.16 4.62997 46.52 4.15997C46.3454 3.99446 46.1266 3.88327 45.89 3.83997C45.6359 3.85395 45.3904 3.93695 45.18 4.07999C43.5666 4.96665 40.9433 8.3333 37.31 14.18C36.27 15.86 35.27 17.6033 34.31 19.41C33.35 21.2166 32.0633 23.7266 30.45 26.94L27.99 31.99L26.88 33.47C25.5779 35.0531 24.4105 36.7423 23.39 38.52C23.4466 38.6083 23.5217 38.6833 23.61 38.74C23.7366 38.8416 23.8741 38.9288 24.02 39C24.1202 39.063 24.2327 39.104 24.35 39.12L24.5 39.02C24.5721 38.9911 24.6369 38.9467 24.69 38.89L24.86 38.74H24.95C24.8897 38.9269 24.8196 39.1105 24.74 39.29C24.61 39.64 24.44 40.06 24.24 40.56C23.2266 43.06 22.4966 45.06 22.05 46.56C21.61 48.08 21.11 50.04 20.57 52.44C19.95 55.1066 20.05 56.69 20.87 57.19C21.0942 57.3298 21.3282 57.4534 21.57 57.56C21.7802 57.6684 22.0064 57.7426 22.24 57.78C22.4919 57.8717 22.7681 57.8717 23.02 57.78C23.297 57.6372 23.5473 57.4478 23.76 57.22C24.2945 56.5682 24.7728 55.8724 25.19 55.14C25.82 54.14 26.71 52.52 27.84 50.39C31.84 43.0167 35.1733 37.81 37.84 34.77C38.1024 34.4415 38.3864 34.1308 38.69 33.84C39.04 33.49 39.36 33.18 39.69 32.91C39.8393 32.7454 40.0151 32.6068 40.21 32.5C40.21 32.5 40.21 32.5 40.21 32.5C40.2172 32.5157 40.2209 32.5327 40.2209 32.55C40.2209 32.5672 40.2172 32.5843 40.21 32.6C40.2024 32.653 40.2024 32.7069 40.21 32.76C40.21 32.84 40.21 32.94 40.21 33.06C40.21 33.18 40.21 33.33 40.16 33.51C40.11 33.69 40.11 33.88 40.08 34.1C40.05 34.32 40.03 34.59 39.99 34.9C39.95 35.21 39.91 35.56 39.86 35.96C39.81 36.36 39.75 36.85 39.67 37.37C39.52 38.58 39.43 39.53 39.39 40.21C39.3604 40.9072 39.3804 41.6056 39.45 42.3C39.4649 43.2593 39.6866 44.2041 40.1 45.07C40.5119 45.7419 41.0998 46.2882 41.8 46.65Z" fill="white"/>
<path d="M74.86 27.5C75.09 27.6 75.24 27.59 75.31 27.5C75.4045 27.3325 75.4688 27.1497 75.5 26.96C75.5098 26.887 75.5098 26.813 75.5 26.74C75.7998 25.813 76.2058 24.9237 76.71 24.09C77.1696 23.2369 77.7639 22.4636 78.47 21.8C78.77 21.61 78.93 21.43 78.95 21.28C78.97 21.13 78.88 20.94 78.66 20.69C78.4476 20.4351 78.2021 20.2098 77.93 20.02C77.6402 19.8128 77.3322 19.6321 77.01 19.48C76.7847 19.3643 76.5331 19.3091 76.28 19.32C76.06 19.42 75.74 19.91 75.34 20.8C74.94 21.69 74.51 22.72 74.09 23.88C73.8157 24.532 73.6762 25.2327 73.68 25.94C73.7209 26.2813 73.8517 26.6055 74.059 26.8796C74.2663 27.1537 74.5428 27.3678 74.86 27.5V27.5Z" fill="white"/>
<path d="M85.35 51.54L85.7201 50.44C83.1201 50.5133 80.5267 50.6334 77.9401 50.8C77.9401 51.14 77.9401 51.58 77.9401 51.93L79.7201 51.81C81.1901 51.72 82.6501 51.64 84.1201 51.58L85.35 51.54Z" fill="white"/>
<path d="M124.38 38.34C124.084 38.2417 123.779 38.1714 123.47 38.13C123.16 38.13 122.68 38.06 122.04 38.04L120.77 37.98H119.99H119.43L120.77 36.91C125.003 33.4433 127.143 30.9566 127.19 29.45C127.137 28.9315 126.959 28.4338 126.67 28C126.405 27.5358 126.022 27.1496 125.56 26.88C124.493 26.3866 122.66 26.61 120.06 27.55C119.57 27.73 118.98 27.97 118.3 28.28C117.62 28.59 117.12 28.83 116.8 29C114.839 30.0516 112.995 31.3087 111.3 32.75C110.845 33.1547 110.423 33.5962 110.04 34.07C109.743 34.4196 109.481 34.7981 109.26 35.2C109.201 35.3226 109.164 35.4546 109.15 35.59C109.162 35.7129 109.2 35.832 109.26 35.94C109.384 36.1997 109.542 36.4418 109.73 36.66L109.85 36.81L106.55 41.36C104.923 43.6133 103.663 45.32 102.77 46.48C101.48 48.23 100.47 49.58 99.77 50.55C96.62 50.4 93.47 50.34 90.31 50.35L89.9 51.43C91.15 51.43 92.4 51.43 93.65 51.43C94.6 51.43 95.56 51.43 96.51 51.49H96.99H97.4L98.73 51.55H98.96C98.35 52.34 97.77 53.05 97.27 53.64C95.6036 55.6025 93.8133 57.4563 91.91 59.19C90.5127 60.5296 88.958 61.6948 87.28 62.66C87.0699 62.77 86.8486 62.8571 86.62 62.92C86.49 62.92 86.42 62.92 86.39 62.77C86.3498 62.3944 86.3498 62.0156 86.39 61.64C86.3932 61.1373 86.4367 60.6357 86.52 60.14C87.1253 57.3067 87.9992 54.5375 89.13 51.87V51.87L89.2 51.7L89.32 51.39L89.76 50.31L90.03 49.66L90.14 49.39C90.25 49.14 90.35 48.89 90.46 48.63C92.24 44.5033 94.38 39.8366 96.88 34.63C99.38 29.4233 101.867 24.4566 104.34 19.73C104.61 19.19 104.86 18.73 105.07 18.34L105.59 17.34C105.72 17.08 105.83 16.87 105.92 16.72C106.01 16.57 106.07 16.46 106.12 16.39C106.153 16.3321 106.197 16.2812 106.25 16.24C106.283 16.2335 106.317 16.2335 106.35 16.24C106.498 16.2267 106.645 16.2034 106.79 16.17L107.65 16.02L109.74 15.63L113.25 15.02C115.55 14.62 117.27 14.31 118.41 14.09L121.97 13.38C124.12 12.9133 126.303 12.6157 128.5 12.49H128.95C129.028 12.4841 129.106 12.5053 129.17 12.55C129.23 12.5974 129.28 12.655 129.32 12.72C129.52 13.04 129.8 13.06 130.17 12.79C130.263 12.727 130.341 12.6452 130.4 12.55C130.421 12.4578 130.421 12.3622 130.4 12.27C130.382 12.0937 130.322 11.9243 130.224 11.7763C130.127 11.6283 129.995 11.5061 129.84 11.42C129.721 11.3766 129.596 11.3496 129.47 11.34L128.8 11.27C128.48 11.27 128.05 11.27 127.52 11.27C126.99 11.27 126.12 11.37 124.9 11.49L121.9 11.8C121.08 11.89 120.13 12.03 119.04 12.21L114.36 13.01C112.36 13.36 110.68 13.63 109.41 13.83C108.14 14.03 107.46 14.13 107.41 14.13C107.529 13.8171 107.676 13.5158 107.85 13.23C108.15 12.69 108.63 11.85 109.3 10.73C109.715 10.1255 110.051 9.47008 110.3 8.77997C110.3 8.57997 110.1 8.30996 109.71 7.95996C109.31 7.6172 108.874 7.31881 108.41 7.06998C108.068 6.86621 107.686 6.73991 107.29 6.69998C107.166 6.69874 107.045 6.73348 106.94 6.79999C106.781 6.91022 106.648 7.05348 106.55 7.21997C106.4 7.43997 105.96 8.32997 105.22 9.87997C104.48 11.43 103.97 12.47 103.69 13.01C103.317 13.73 103.047 14.23 102.88 14.51C102.7 14.8 102.59 14.94 102.54 14.94C102.07 15.07 101.08 15.26 99.54 15.52C98 15.78 96.37 16.04 94.54 16.3L92.62 16.56C93.64 15.12 94.61 13.8133 95.53 12.64L96.53 11.34L96.87 11.6C96.9695 11.6724 97.073 11.7392 97.18 11.8C97.2677 11.8545 97.3617 11.8981 97.46 11.93C97.5138 11.9726 97.5814 11.994 97.65 11.99L97.84 11.92C97.9337 11.8633 98.018 11.7925 98.09 11.71C98.4373 11.338 98.7425 10.9289 99 10.49C99.36 9.91999 99.68 9.33998 100 8.75998C100.22 8.37736 100.366 7.95668 100.43 7.51999C100.43 7.29999 100.25 7.01998 99.89 6.69998C99.5273 6.37755 99.1278 6.09895 98.7 5.86996C98.4024 5.67341 98.0564 5.56271 97.7 5.54999C97.3 5.59999 96.12 6.84999 94.14 9.29999C93 10.74 91.7933 12.4067 90.52 14.3C89.96 15.11 89.34 16.05 88.68 17.08C87.4649 17.2186 86.2394 17.242 85.02 17.15C84.3142 17.1174 83.6361 16.8657 83.08 16.43L82.76 16.19C82.7028 16.1403 82.634 16.1059 82.56 16.09C82.5062 16.0987 82.455 16.1192 82.41 16.15C82.3399 16.1825 82.2757 16.2264 82.22 16.28C81.93 16.48 81.9 16.89 82.15 17.51C82.3498 18.0787 82.6731 18.596 83.0968 19.0248C83.5204 19.4536 84.0337 19.7833 84.6 19.99C85.3114 20.1256 86.0369 20.1726 86.76 20.13L85.86 21.59C84.6 23.59 83.27 25.78 81.86 28.16C80.45 30.54 79.52 32.23 79 33.24C78.9581 33.3601 78.9009 33.4744 78.83 33.58L78.55 34.06C78.21 34.68 77.75 35.56 77.18 36.69C76.61 37.82 76.06 38.98 75.51 40.14C75.38 40.43 75.24 40.73 75.1 41.02C73.756 42.6314 72.3097 44.1545 70.77 45.58C70.3232 45.6157 69.8898 45.7488 69.5 45.97C69.4026 46.0218 69.32 46.0975 69.26 46.19C69.2239 46.2867 69.2239 46.3932 69.26 46.49C69.2405 46.5924 69.2405 46.6976 69.26 46.8C68.8292 47.1196 68.3627 47.3881 67.87 47.6C67.6484 47.7194 67.4016 47.7845 67.15 47.79C67.04 47.79 66.98 47.64 66.98 47.42C66.86 46.36 67.33 44.52 68.39 41.93C69.5803 39.0814 70.9843 36.3269 72.59 33.69C72.88 33.19 73.14 32.76 73.37 32.39C73.6 32.02 73.72 31.78 73.77 31.68C73.8139 31.5898 73.8345 31.4901 73.83 31.39C73.8004 31.2769 73.7419 31.1734 73.66 31.09C73.4568 30.8158 73.2142 30.5731 72.94 30.37C72.6594 30.143 72.3541 29.9485 72.03 29.79C71.8518 29.6962 71.6453 29.6713 71.45 29.72C71.29 29.77 71.1 29.98 70.86 30.35C70.62 30.72 70.29 31.35 69.86 32.17C68.1485 35.2617 66.7194 38.5015 65.59 41.85C65.3074 42.7971 65.1099 43.7677 65 44.75C64.8784 45.4481 64.8784 46.1619 65 46.86C65.1383 47.2947 65.3783 47.6903 65.7 48.0137C66.0218 48.3372 66.4159 48.5793 66.85 48.72C67.69 49.15 68.85 48.72 70.36 47.58L70.56 47.68C70.9108 47.8396 71.2716 47.9766 71.64 48.09H71.94L71.3 49.77C71.13 50.2 70.98 50.62 70.82 51.03L70.06 53.03C68.3826 57.2454 67.0613 61.5939 66.11 66.03C65.74 68.03 65.76 69.4 66.18 70.03C66.286 70.2063 66.4337 70.3539 66.61 70.46C66.8857 70.5997 67.178 70.7039 67.48 70.77C67.876 70.8785 68.2939 70.8785 68.69 70.77C69.1022 70.6186 69.4749 70.3759 69.78 70.06C70.8522 68.9226 71.7639 67.6442 72.49 66.26C73.5362 64.4313 74.4422 62.5258 75.2 60.56C76.0448 58.3906 76.7137 56.1567 77.2 53.88C77.3063 53.2552 77.3665 52.6236 77.38 51.99C77.38 51.47 77.38 50.81 77.38 50.55C77.3739 50.1727 77.327 49.7971 77.24 49.43C77.17 49.23 77.07 49 76.94 48.72C76.8257 48.4616 76.6885 48.2139 76.53 47.98C76.4312 47.8221 76.3209 47.6716 76.2 47.53C76.1477 47.5053 76.1029 47.4674 76.07 47.42C76.0404 47.3907 76.0226 47.3515 76.02 47.31C76.513 47.0481 77.0205 46.8144 77.54 46.61C80.4549 45.491 83.2798 44.1504 85.99 42.6C87.8315 41.3911 89.6105 40.0894 91.32 38.7C90.32 40.9 89.49 42.87 88.78 44.59C88.07 46.31 87.4 47.97 86.83 49.48L85.67 52.72C83.85 58.12 83.33 61.57 84.14 63C84.3414 63.3362 84.6194 63.6202 84.9513 63.8287C85.2832 64.0372 85.6596 64.1644 86.05 64.2C86.9394 64.3388 87.85 64.2027 88.66 63.81C89.8902 63.1529 91.0326 62.3432 92.06 61.4C93.16 60.4 94 59.61 94.57 58.99C96.6978 56.7694 98.7009 54.4324 100.57 51.99C100.65 51.89 100.72 51.78 100.81 51.68L101.61 50.61C103.44 48.22 105.18 45.83 106.8 43.42C108.73 40.55 110 38.69 110.59 37.85C110.97 37.32 111.28 36.85 111.59 36.47L112.08 36C112.37 35.67 112.7 35.35 113.08 35L113.95 34.2C114.47 33.78 115.2 33.25 116.14 32.59C117.08 31.93 117.91 31.4 118.63 30.97C119.822 30.2749 121.07 29.6796 122.36 29.19C123.222 28.8152 124.15 28.6147 125.09 28.6H125.46L125.31 28.93C125.126 29.2928 124.894 29.6292 124.62 29.93C124.26 30.38 123.87 30.82 123.45 31.27C122.41 32.31 121.077 33.4967 119.45 34.83C117.823 36.1633 116.303 37.3266 114.89 38.32C114.44 38.62 114.11 38.85 113.89 39.03C113.729 39.1468 113.582 39.2809 113.45 39.43C113.416 39.4635 113.392 39.5047 113.378 39.55C113.364 39.5953 113.361 39.6434 113.37 39.69C113.444 39.915 113.552 40.1275 113.69 40.32C113.836 40.5568 114.011 40.7751 114.21 40.97C114.334 41.125 114.513 41.2255 114.71 41.25L115.1 41.18C115.34 41.13 115.6 41.05 115.9 40.96C117.328 40.5943 118.777 40.3205 120.24 40.14C120.598 40.0892 120.959 40.0625 121.32 40.06H122.8C123.3 40.06 123.67 40.11 123.93 40.14C124.15 40.1544 124.368 40.1912 124.58 40.25L125.18 40.43C128.12 41.25 129.56 43.43 129.48 46.82C129.46 47.5535 129.393 48.285 129.28 49.01C129.173 49.7951 129.019 50.5731 128.82 51.34C128.298 53.2363 127.535 55.0578 126.55 56.76C123.477 61.7869 119.568 66.2512 114.99 69.96C114.18 70.65 113.23 71.41 112.15 72.22C111.07 73.03 110.06 73.78 109.09 74.45C104.217 77.7833 100.717 79.38 98.59 79.24C98.3492 79.2436 98.1115 79.185 97.9 79.07C97.75 78.8977 97.6528 78.6859 97.62 78.46C97.4957 78.1072 97.4414 77.7336 97.46 77.36C97.4861 76.8686 97.553 76.3803 97.66 75.9C97.7633 75.2939 97.931 74.7006 98.16 74.13C98.4 73.55 98.74 72.83 99.16 71.96C100.602 69.2121 102.188 66.5417 103.91 63.96C105.58 61.4081 107.403 58.9602 109.37 56.63C110.501 55.2423 111.809 54.0085 113.26 52.96C113.371 52.8951 113.472 52.8143 113.56 52.72L113.71 52.55C113.699 52.4889 113.675 52.4309 113.64 52.38C113.552 52.1812 113.41 52.0113 113.23 51.89C113.189 51.8484 113.137 51.8204 113.08 51.81C112.59 51.599 112.063 51.4902 111.53 51.49V51.49C108.45 51.12 105.36 50.85 102.27 50.66L101.45 51.72C104.21 51.9 106.88 52.13 109.57 52.47H109.83L111.71 52.68L111.57 52.79C111.21 53.07 110.9 53.34 110.57 53.58C108.064 56.0616 105.798 58.7736 103.8 61.68C101.41 64.9947 99.2456 68.4659 97.32 72.07C96.945 72.715 96.611 73.383 96.32 74.07C96.1187 74.5978 95.968 75.1436 95.87 75.7C95.7053 76.3809 95.6748 77.0874 95.78 77.78C95.9065 78.3556 96.2109 78.8768 96.65 79.27C97.1745 79.847 97.8198 80.3011 98.54 80.6C98.9209 80.7428 99.3232 80.8206 99.73 80.83C102.45 81.0033 106.62 79.1466 112.24 75.26C117.161 71.9265 121.531 67.8438 125.19 63.16C128.022 59.6468 129.949 55.4918 130.8 51.06V50.76C130.8 50.54 130.85 50.33 130.88 50.13C131.208 48.0305 130.976 45.8818 130.21 43.9C129.73 42.5879 128.955 41.4039 127.944 40.4397C126.933 39.4755 125.713 38.757 124.38 38.34V38.34ZM73.3 44.76C73.1508 45.0556 73.027 45.3634 72.93 45.68C72.93 45.68 72.93 45.68 72.79 45.68L72.43 45.63L73.3 44.76ZM75.05 51.01C75.05 51.28 75.05 51.74 74.98 52.18C74.9849 52.2632 74.9849 52.3467 74.98 52.43C74.98 52.64 74.98 52.83 74.92 52.99C74.6889 54.4978 74.3548 55.9879 73.92 57.45C73.2724 59.5451 72.4736 61.5905 71.53 63.57C70.7426 65.2894 69.7773 66.9216 68.65 68.44C68.5445 68.6078 68.4276 68.7682 68.3 68.92C68.1866 69.04 68.1166 69.1 68.09 69.1C68.0613 68.9413 68.0613 68.7787 68.09 68.62C68.1105 68.2481 68.1505 67.8776 68.21 67.51C68.27 67.09 68.34 66.68 68.41 66.28C69.2565 62.9319 70.2982 59.6363 71.53 56.41C71.9 55.41 72.33 54.31 72.81 53.09C72.81 52.97 72.9 52.86 72.94 52.75V52.68L73.06 52.36L73.55 51.13L73.62 50.97V50.87C73.76 50.53 73.89 50.19 74.02 49.87C74.39 48.95 74.59 48.48 74.61 48.46C74.7429 48.6717 74.825 48.9112 74.85 49.16C74.9422 49.5643 74.9991 49.9758 75.02 50.39C75.02 50.5 75.02 50.62 75.02 50.74V51L75.05 51.01ZM91.19 37.3C89.19 38.83 87.58 39.98 86.37 40.73C84.4252 41.8668 82.4224 42.9015 80.37 43.83C79.88 44.08 79.29 44.35 78.59 44.65L76.72 45.43C76.4238 45.5588 76.1199 45.6691 75.81 45.76C75.9849 45.2686 76.1955 44.7907 76.44 44.33C76.86 43.45 77.36 42.43 77.92 41.25C78.48 40.07 79.01 39.03 79.48 38.11C81.76 33.71 84.3966 29.12 87.39 24.34C88.44 22.66 89.46 21.1 90.39 19.64C92.62 19.21 94.86 18.73 97.11 18.18C98.72 17.81 100.11 17.5 101.3 17.26C101.208 17.4852 101.105 17.7055 100.99 17.92C100.78 18.34 100.53 18.85 100.23 19.44C98.1166 23.7466 95.9866 28.2466 93.84 32.94C93.27 34.18 92.73 35.37 92.22 36.5L91.19 37.3Z" fill="white"/>
<path d="M73.58 52.31L74.36 52.24L74.74 51.03L74.09 51.09L73.58 52.31Z" fill="white"/>
<path d="M69.4 51.54C61.487 52.3395 53.627 53.5983 45.86 55.31C44.23 55.67 42.61 56.05 41 56.49C40.76 56.56 40.59 56.7 40.75 56.91C40.91 57.12 41.69 57.22 41.9 57.24C43.0395 57.4121 44.2016 57.3577 45.32 57.08C44.97 57.17 44.84 57.2 45.18 57.08L45.87 56.9C46.72 56.68 47.57 56.48 48.42 56.28C51.57 55.56 54.75 54.93 57.93 54.37L59.37 54.13L60.15 54L60.55 53.93H60.68H60.77C61.89 53.75 63.02 53.58 64.15 53.42C65.69 53.2 67.24 53.02 68.79 52.83L69.4 51.54Z" fill="white"/>
<path d="M169.99 32.66C169.67 32.46 169.51 32.46 169.51 32.66C169.51 32.98 168.47 34.34 166.39 36.74C165.13 38.2467 164.103 39.4267 163.31 40.28C162.52 41.14 161.71 41.96 160.9 42.75C157.7 45.87 155.033 47.4167 152.9 47.39C152.43 47.39 152.17 47.39 152.12 47.28C152.016 47.0267 151.972 46.7531 151.99 46.48C151.971 46.0793 151.988 45.6777 152.04 45.28C152.387 43.254 153.063 41.2983 154.04 39.49L154.45 38.67H154.82C155.406 38.6232 155.978 38.4707 156.51 38.22C157.299 37.897 158.061 37.5125 158.79 37.07C160.009 36.2742 161.127 35.334 162.12 34.27C163.193 33.1601 164.154 31.9476 164.99 30.65C165.61 29.65 165.82 28.96 165.62 28.54C165.363 27.9073 164.924 27.3647 164.36 26.98C164.102 26.7632 163.807 26.5939 163.49 26.48C163.196 26.3863 162.886 26.3556 162.58 26.39C161.173 26.6093 159.831 27.135 158.65 27.93C157.122 28.8614 155.743 30.0177 154.56 31.36C153.194 32.8545 152.015 34.5101 151.05 36.29L150.67 36.74C149.41 38.2467 148.383 39.4267 147.59 40.28C146.79 41.14 145.99 41.96 145.17 42.75C141.983 45.87 139.317 47.4167 137.17 47.39C136.7 47.39 136.44 47.39 136.4 47.28C136.296 47.0267 136.252 46.7531 136.27 46.48C136.251 46.0793 136.268 45.6777 136.32 45.28C136.667 43.254 137.343 41.2983 138.32 39.49L138.73 38.67H139.1C139.686 38.6232 140.258 38.4707 140.79 38.22C141.579 37.897 142.341 37.5125 143.07 37.07C144.287 36.2764 145.402 35.336 146.39 34.27C147.469 33.1628 148.434 31.9501 149.27 30.65C149.89 29.65 150.1 28.96 149.9 28.54C149.643 27.9073 149.204 27.3647 148.64 26.98C148.382 26.7632 148.087 26.5939 147.77 26.48C147.476 26.3869 147.166 26.3562 146.86 26.39C145.45 26.6107 144.106 27.1362 142.92 27.93C141.397 28.8645 140.022 30.0205 138.84 31.36C137.152 33.1885 135.755 35.2662 134.7 37.52C133.781 39.3698 133.269 41.3954 133.2 43.46C133.125 44.3267 133.269 45.1983 133.619 45.995C133.968 46.7916 134.512 47.4879 135.2 48.02C135.732 48.5351 136.403 48.8828 137.13 49.02C138.69 49.2 140.66 48.33 143.04 46.43C144.952 44.8345 146.704 43.0561 148.27 41.12L149.55 39.62C149.123 40.8566 148.89 42.152 148.86 43.46C148.783 44.3269 148.927 45.1991 149.276 45.9961C149.626 46.7931 150.17 47.4891 150.86 48.02C151.389 48.5386 152.061 48.8868 152.79 49.02C154.35 49.2 156.31 48.33 158.69 46.43C160.605 44.8372 162.356 43.0585 163.92 41.12C166.091 38.7271 168.124 36.213 170.01 33.59C170.115 33.4568 170.171 33.2911 170.167 33.1214C170.164 32.9516 170.101 32.7885 169.99 32.66V32.66ZM155.87 36.26C156.08 35.94 156.35 35.56 156.68 35.13C157.01 34.7 157.33 34.29 157.63 33.92C158.519 32.815 159.525 31.8091 160.63 30.92C161 30.62 161.36 30.34 161.72 30.07C162.021 29.8312 162.338 29.614 162.67 29.42C162.81 29.3288 162.957 29.2485 163.11 29.18C163.11 29.18 163.11 29.32 162.96 29.53C162.81 29.74 162.69 30.01 162.52 30.33C161.827 31.4722 161.019 32.541 160.11 33.52C159.54 34.1045 158.925 34.6428 158.27 35.13C157.602 35.6504 156.885 36.1058 156.13 36.49C156.026 36.5555 155.916 36.6092 155.8 36.65L155.62 36.71C155.573 36.73 155.657 36.58 155.87 36.26ZM140.2 36.26C140.41 35.94 140.69 35.56 141.02 35.13C141.35 34.7 141.67 34.29 142.02 33.92C142.911 32.817 143.917 31.8114 145.02 30.92L146.12 30.07C146.421 29.8312 146.738 29.614 147.07 29.42C147.21 29.3288 147.357 29.2485 147.51 29.18C147.51 29.18 147.51 29.32 147.36 29.53C147.21 29.74 147.09 30.01 146.92 30.33C146.223 31.4725 145.413 32.5414 144.5 33.52C143.936 34.107 143.324 34.6455 142.67 35.13C142.002 35.6504 141.285 36.1058 140.53 36.49C140.426 36.5555 140.316 36.6092 140.2 36.65L140.01 36.71C139.93 36.73 139.993 36.58 140.2 36.26Z" fill="white"/>
</g>
<defs>
<clipPath id="clip0_646_253">
<rect width="170.24" height="80.92" fill="white"/>
</clipPath>
</defs>
</svg>
