<svg width="47" height="47" viewBox="0 0 47 47" fill="none" xmlns="http://www.w3.org/2000/svg">
<rect width="47" height="47" fill="#FF5943"/>
<path d="M32.2578 15.4766L28.1953 14.5391C27.7656 14.4219 27.2969 14.6562 27.1016 15.0859L25.2266 19.4609C25.0703 19.8516 25.1875 20.2812 25.5 20.5547L27.8828 22.5078C26.4766 25.4766 24.0156 27.9766 20.9688 29.4219L19.0156 27.0391C18.7422 26.7266 18.3125 26.6094 17.9219 26.7656L13.5469 28.6406C13.1172 28.8359 12.9219 29.3047 13 29.7344L13.9375 33.7969C14.0547 34.2266 14.4062 34.5 14.875 34.5C24.875 34.5 33 26.4141 33 16.375C33 15.9453 32.6875 15.5938 32.2578 15.4766Z" fill="white"/>
</svg>
