<svg width="47" height="47" viewBox="0 0 47 47" fill="none" xmlns="http://www.w3.org/2000/svg">
<rect width="47" height="47" fill="#FF5943"/>
<path d="M33 32.625V22.3516C33 21.7656 32.6875 21.2188 32.2578 20.8672C31.2812 20.125 30.5 19.5 25.8516 16.1406C25.1875 15.6719 23.8984 14.5 23 14.5391C22.0625 14.5 20.7734 15.6719 20.1094 16.1406C15.4609 19.5 14.6797 20.125 13.7031 20.8672C13.2734 21.2188 13 21.7656 13 22.3516V32.625C13 33.6797 13.8203 34.5 14.875 34.5H31.125C32.1406 34.5 33 33.6797 33 32.625ZM30.4219 24.9688L30.7734 25.4766C30.8125 25.5156 30.8125 25.5938 30.8125 25.6719C30.8125 25.75 30.7734 25.8672 30.6953 25.9062C29.7969 26.5703 28.5469 27.5078 26.5938 28.9141C25.7734 29.5 24.3672 30.7891 23 30.75C21.5938 30.7891 20.1875 29.5 19.3672 28.9141C17.4141 27.5078 16.1641 26.5703 15.2656 25.9062C15.1875 25.8672 15.1484 25.75 15.1484 25.6719C15.1484 25.5938 15.1484 25.5156 15.1875 25.4766L15.5391 24.9688C15.6562 24.8125 15.8516 24.7734 16.0078 24.8906C16.8672 25.5547 18.1562 26.4922 20.1094 27.8984C20.7734 28.3672 22.0625 29.5391 23 29.5C23.8984 29.5391 25.1875 28.3672 25.8516 27.8984C27.8047 26.4922 29.0938 25.5547 29.9531 24.8906C30.1094 24.7734 30.3047 24.8125 30.4219 24.9688Z" fill="white"/>
</svg>
